<?xml version="1.0" standalone="no"?>
<!DOCTYPE svg PUBLIC "-//W3C//DTD SVG 20010904//EN"
 "http://www.w3.org/TR/2001/REC-SVG-20010904/DTD/svg10.dtd">
<svg version="1.0" xmlns="http://www.w3.org/2000/svg"
 width="474.000000pt" height="474.000000pt" viewBox="0 0 474.000000 474.000000"
 preserveAspectRatio="xMidYMid meet">

<g transform="translate(0.000000,474.000000) scale(0.100000,-0.100000)"
fill="#000000" stroke="none">
<path d="M2302 4400 c-15 -25 -12 -31 58 -111 69 -78 64 -69 111 -202 24 -69
43 -145 50 -202 6 -49 13 -108 15 -130 4 -36 10 -43 50 -63 146 -74 314 -5
399 164 27 54 30 68 29 155 0 84 -4 104 -27 151 -29 58 -129 162 -150 155 -18
-5 -34 -44 -47 -110 -14 -67 -38 -97 -79 -97 -37 0 -48 14 -56 75 -14 112 -15
115 -37 115 -14 0 -43 -23 -79 -61 -32 -36 -61 -59 -68 -55 -6 4 -23 28 -37
54 -50 86 -109 181 -114 182 -3 0 -11 -9 -18 -20z"/>
<path d="M1895 4107 c-4 -13 -1 -42 5 -63 23 -79 27 -100 19 -122 -14 -38 -59
-29 -118 24 -64 57 -75 51 -92 -49 -22 -130 16 -261 98 -338 118 -112 268
-115 374 -6 131 135 123 352 -18 491 -50 49 -105 73 -192 82 -69 6 -70 6 -76
-19z"/>
<path d="M3385 3811 c-7 -43 -7 -44 61 -114 87 -89 86 -87 148 -166 178 -226
343 -555 417 -834 64 -243 96 -539 79 -744 -23 -285 -51 -441 -112 -618 -94
-274 -254 -501 -470 -666 -42 -33 -79 -59 -82 -59 -2 0 -31 -16 -63 -35 -74
-44 -288 -131 -345 -140 -24 -3 -61 -13 -83 -20 -22 -8 -60 -16 -85 -19 -25
-3 -79 -10 -120 -16 -41 -6 -142 -10 -224 -9 -81 0 -152 -3 -156 -8 -4 -4 -15
-42 -23 -83 -21 -106 -45 -157 -83 -175 -41 -19 -58 -19 -100 1 -43 20 -117
124 -160 222 -18 41 -38 80 -46 87 -7 7 -56 27 -108 44 -93 32 -200 74 -230
91 -8 5 -42 23 -74 40 -32 18 -64 36 -70 41 -20 17 -90 68 -126 93 -76 51
-248 253 -314 366 -80 138 -115 220 -179 425 -44 138 -86 436 -87 615 -1 59
-4 70 -40 120 -70 100 -153 234 -183 298 -40 85 -49 205 -19 242 18 22 28 25
84 25 43 -1 75 -7 103 -22 53 -27 101 -35 113 -20 6 7 13 30 17 52 25 147 135
418 242 595 47 78 57 92 160 229 58 77 86 142 68 159 -12 12 -163 -157 -226
-253 -33 -49 -63 -95 -67 -100 -20 -30 -108 -202 -122 -240 -4 -11 -12 -31
-18 -45 -6 -14 -19 -46 -30 -71 -11 -26 -32 -94 -47 -153 -26 -98 -30 -106
-52 -106 -13 0 -37 7 -52 15 -28 14 -102 34 -150 40 -33 4 -81 -18 -111 -50
-23 -24 -25 -34 -24 -113 0 -128 50 -249 197 -483 36 -59 70 -117 75 -130 5
-13 12 -85 16 -159 4 -74 11 -153 16 -175 63 -296 88 -396 117 -463 9 -20 17
-39 17 -42 1 -3 12 -28 25 -55 13 -28 27 -57 31 -65 28 -62 148 -253 195 -310
128 -156 275 -270 490 -378 82 -42 257 -112 279 -112 16 0 47 -42 85 -118 17
-33 44 -77 61 -95 16 -19 30 -40 30 -46 0 -6 18 -20 40 -31 23 -12 46 -32 52
-45 11 -24 15 -25 100 -25 l88 0 0 26 c0 15 13 41 30 61 17 18 30 45 30 59 0
51 23 115 46 130 38 25 57 6 72 -72 13 -71 38 -124 58 -124 7 0 15 -18 19 -40
l7 -40 94 0 c94 0 94 0 94 25 0 19 12 34 45 57 44 31 111 120 155 204 21 43
28 47 125 77 265 83 430 180 606 356 222 224 341 456 421 826 11 49 19 103 18
119 0 15 4 33 8 40 5 6 9 18 9 26 0 8 6 74 12 147 7 73 11 199 9 280 l-3 148
49 75 c101 154 167 318 161 400 -3 35 -11 51 -35 73 -26 23 -39 27 -93 27 -41
0 -85 -8 -129 -24 -63 -23 -67 -23 -82 -7 -9 9 -17 26 -19 37 -2 10 -9 32 -15
47 -7 16 -12 34 -12 40 -1 36 -227 461 -259 487 -3 3 -19 25 -35 50 -59 91
-250 310 -272 310 -7 0 -17 8 -22 17 -8 13 -11 7 -17 -26z"/>
<path d="M2510 3565 c-5 -14 -19 -45 -30 -69 -22 -48 -25 -66 -12 -66 11 0 48
84 57 128 8 38 -1 43 -15 7z"/>
<path d="M1488 3333 c-30 -2 -48 -9 -48 -17 0 -9 27 -13 104 -14 87 -1 116 -6
170 -28 78 -31 190 -128 217 -189 24 -51 25 -152 3 -197 -17 -34 -104 -111
-139 -122 -30 -9 -175 -10 -214 -1 -22 5 -31 4 -27 -3 13 -22 73 -43 136 -49
36 -3 71 -10 78 -16 9 -7 12 -71 12 -256 0 -380 27 -635 95 -911 74 -303 169
-478 315 -584 60 -44 130 -66 208 -66 54 0 75 6 132 36 81 42 168 127 228 221
34 54 154 290 202 398 19 41 110 324 135 420 47 175 83 348 111 540 22 147 39
207 69 233 l26 22 -66 0 c-70 0 -91 8 -143 55 -56 50 -75 99 -68 168 8 83 28
118 114 203 41 41 73 76 71 79 -13 12 -111 -50 -164 -104 -54 -55 -63 -61
-100 -61 -23 0 -61 6 -86 14 -100 31 -182 38 -433 37 -198 -1 -262 -4 -296
-16 -51 -18 -90 -19 -110 -2 -8 7 -32 33 -53 59 -39 49 -118 100 -202 131 -51
19 -185 29 -277 20z m1062 -253 c230 -15 240 -19 226 -76 -9 -36 -84 -114
-131 -135 -83 -38 -182 -20 -252 46 -26 25 -51 45 -57 45 -5 0 -31 -20 -57
-45 -53 -50 -66 -53 -97 -27 -24 21 -62 111 -62 147 0 29 15 34 128 45 113 11
142 11 302 0z m85 -1198 c-6 -6 -35 18 -35 29 0 5 9 1 20 -8 11 -9 17 -19 15
-21z m135 -242 c0 -13 -6 -20 -17 -19 -10 0 -13 3 -6 5 7 3 9 12 6 20 -3 8 0
14 6 14 6 0 11 -9 11 -20z m1 -143 c-13 -13 -15 1 -4 30 7 17 8 17 11 -1 2
-10 -1 -23 -7 -29z m-738 -62 c4 -8 16 -15 27 -15 13 0 20 -7 20 -19 0 -11 5
-23 10 -26 6 -3 10 -45 10 -92 0 -83 14 -150 35 -165 5 -4 6 -10 2 -14 -4 -4
-16 1 -27 11 -23 21 -100 130 -100 142 0 5 -11 29 -25 55 -13 25 -27 63 -30
85 -4 21 -8 47 -9 58 -2 11 -2 23 0 27 6 10 81 -30 87 -47z m787 -55 c0 -5 -5
-10 -11 -10 -5 0 -7 5 -4 10 3 6 8 10 11 10 2 0 4 -4 4 -10z m0 -25 c0 -12
-24 -55 -32 -55 -9 0 -10 7 -2 38 4 12 13 22 20 22 8 0 14 -2 14 -5z m-52 -90
c-6 -14 -13 -23 -15 -21 -5 5 15 46 22 46 3 0 -1 -11 -7 -25z m-103 -102 c3
-13 10 -21 14 -18 5 3 1 -12 -10 -34 -24 -49 -88 -106 -159 -139 -99 -47 -225
-27 -302 46 -38 37 -51 66 -23 56 8 -4 12 -10 9 -15 -3 -5 -1 -9 4 -9 4 0 35
30 67 66 l58 66 51 -5 c28 -4 60 -9 71 -12 14 -4 29 2 47 18 17 16 28 21 31
14 3 -9 7 -9 18 -1 36 30 113 9 124 -33z"/>
</g>
</svg>
